<svg width="24" height="24" viewBox="0 0 24 24" fill="none" xmlns="http://www.w3.org/2000/svg">
<circle cx="12" cy="12" r="12" fill="black"/>
<path d="M11.8778 16.1193C11.2926 16.1193 10.7699 16.0185 10.3097 15.8168C9.85227 15.6151 9.49006 15.3352 9.22301 14.9773C8.95881 14.6165 8.81676 14.1989 8.79688 13.7244H10.1349C10.152 13.983 10.2386 14.2074 10.3949 14.3977C10.554 14.5852 10.7614 14.7301 11.017 14.8324C11.2727 14.9347 11.5568 14.9858 11.8693 14.9858C12.2131 14.9858 12.517 14.9261 12.7812 14.8068C13.0483 14.6875 13.2571 14.5213 13.4077 14.3082C13.5582 14.0923 13.6335 13.8438 13.6335 13.5625C13.6335 13.2699 13.5582 13.0128 13.4077 12.7912C13.2599 12.5668 13.0426 12.3906 12.7557 12.2628C12.4716 12.1349 12.1278 12.071 11.7244 12.071H10.9872V10.9972H11.7244C12.0483 10.9972 12.3324 10.9389 12.5767 10.8224C12.8239 10.706 13.017 10.544 13.1562 10.3366C13.2955 10.1264 13.3651 9.88068 13.3651 9.59943C13.3651 9.32955 13.304 9.09517 13.1818 8.89631C13.0625 8.6946 12.892 8.53693 12.6705 8.4233C12.4517 8.30966 12.1932 8.25284 11.8949 8.25284C11.6108 8.25284 11.3452 8.3054 11.098 8.41051C10.8537 8.51278 10.6548 8.66051 10.5014 8.85369C10.348 9.04403 10.2656 9.27273 10.2543 9.53977H8.98011C8.99432 9.06818 9.13352 8.65341 9.39773 8.29545C9.66477 7.9375 10.017 7.65767 10.4545 7.45597C10.892 7.25426 11.3778 7.15341 11.9119 7.15341C12.4716 7.15341 12.9545 7.26278 13.3608 7.48153C13.7699 7.69744 14.0852 7.9858 14.3068 8.34659C14.5313 8.70739 14.642 9.10227 14.6392 9.53125C14.642 10.0199 14.5057 10.4347 14.2301 10.7756C13.9574 11.1165 13.5938 11.3452 13.1392 11.4616V11.5298C13.7188 11.6179 14.1676 11.848 14.4858 12.2202C14.8068 12.5923 14.9659 13.054 14.9631 13.6051C14.9659 14.0852 14.8324 14.5156 14.5625 14.8963C14.2955 15.277 13.9304 15.5767 13.4673 15.7955C13.0043 16.0114 12.4744 16.1193 11.8778 16.1193Z" fill="white"/>
</svg>
