<svg width="24" height="24" viewBox="0 0 24 24" fill="none" xmlns="http://www.w3.org/2000/svg">
<circle cx="12" cy="12" r="12" fill="black"/>
<path d="M8.83949 16V15.0455L11.7926 11.9858C12.108 11.6534 12.3679 11.3622 12.5724 11.1122C12.7798 10.8594 12.9347 10.6193 13.0369 10.392C13.1392 10.1648 13.1903 9.9233 13.1903 9.66761C13.1903 9.37784 13.1222 9.12784 12.9858 8.91761C12.8494 8.70455 12.6634 8.54119 12.4276 8.42756C12.1918 8.31108 11.9261 8.25284 11.6307 8.25284C11.3182 8.25284 11.0455 8.31676 10.8125 8.4446C10.5795 8.57244 10.4006 8.75284 10.2756 8.9858C10.1506 9.21875 10.0881 9.49148 10.0881 9.80398H8.83097C8.83097 9.27273 8.95313 8.80824 9.19744 8.41051C9.44176 8.01278 9.77699 7.70455 10.2031 7.4858C10.6293 7.2642 11.1136 7.15341 11.6562 7.15341C12.2045 7.15341 12.6875 7.26278 13.1051 7.48153C13.5256 7.69744 13.8537 7.9929 14.0895 8.3679C14.3253 8.74006 14.4432 9.16051 14.4432 9.62926C14.4432 9.95312 14.3821 10.2699 14.2599 10.5795C14.1406 10.8892 13.9318 11.2344 13.6335 11.6151C13.3352 11.9929 12.9205 12.4517 12.3892 12.9915L10.6548 14.8068V14.8707H14.5838V16H8.83949Z" fill="white"/>
</svg>
