<svg width="24" height="24" viewBox="0 0 24 24" fill="none" xmlns="http://www.w3.org/2000/svg">
<circle cx="12" cy="12" r="12" fill="black"/>
<path d="M11.7202 16.1193C11.1861 16.1193 10.706 16.017 10.2798 15.8125C9.85653 15.6051 9.51847 15.321 9.26562 14.9602C9.01278 14.5994 8.87784 14.1875 8.8608 13.7244H10.1392C10.1705 14.0994 10.3366 14.4077 10.6378 14.6491C10.9389 14.8906 11.2997 15.0114 11.7202 15.0114C12.0554 15.0114 12.3523 14.9347 12.6108 14.7812C12.8722 14.625 13.0767 14.4105 13.2244 14.1378C13.375 13.8651 13.4503 13.554 13.4503 13.2045C13.4503 12.8494 13.3736 12.5327 13.2202 12.2543C13.0668 11.9759 12.8551 11.7571 12.5852 11.598C12.3182 11.4389 12.0114 11.358 11.6648 11.3551C11.4006 11.3551 11.1349 11.4006 10.8679 11.4915C10.6009 11.5824 10.3849 11.7017 10.2202 11.8494L9.0142 11.6705L9.50426 7.27273H14.3026V8.40199H10.5994L10.3224 10.8438H10.3736C10.544 10.679 10.7699 10.5412 11.0511 10.4304C11.3352 10.3196 11.6392 10.2642 11.9631 10.2642C12.4943 10.2642 12.9673 10.3906 13.3821 10.6435C13.7997 10.8963 14.1278 11.2415 14.3665 11.679C14.608 12.1136 14.7273 12.6136 14.7244 13.179C14.7273 13.7443 14.5994 14.2486 14.3409 14.6918C14.0852 15.1349 13.7301 15.4844 13.2756 15.7401C12.8239 15.9929 12.3054 16.1193 11.7202 16.1193Z" fill="white"/>
</svg>
