<svg width="24" height="24" viewBox="0 0 24 24" fill="none" xmlns="http://www.w3.org/2000/svg">
<circle cx="12" cy="12" r="12" fill="black"/>
<path d="M11.8864 16.1193C11.4972 16.1136 11.1136 16.0426 10.7358 15.9062C10.3608 15.7699 10.0199 15.5426 9.71307 15.2244C9.40625 14.9062 9.16051 14.4787 8.97585 13.9418C8.79403 13.4048 8.70312 12.7344 8.70312 11.9304C8.70312 11.169 8.77841 10.4929 8.92898 9.90199C9.08239 9.31108 9.30256 8.8125 9.58949 8.40625C9.87642 7.99716 10.223 7.68608 10.6293 7.47301C11.0355 7.25994 11.4915 7.15341 11.9972 7.15341C12.517 7.15341 12.9787 7.25568 13.3821 7.46023C13.7855 7.66477 14.1122 7.94744 14.3622 8.30824C14.6151 8.66903 14.7756 9.07955 14.8438 9.53977H13.544C13.456 9.17614 13.2813 8.87926 13.0199 8.64915C12.7585 8.41903 12.4176 8.30398 11.9972 8.30398C11.358 8.30398 10.8594 8.58239 10.5014 9.1392C10.1463 9.69602 9.96733 10.4702 9.96449 11.4616H10.0284C10.179 11.2145 10.3636 11.0043 10.5824 10.831C10.804 10.6548 11.0511 10.5199 11.3239 10.4261C11.5994 10.3295 11.8892 10.2812 12.1932 10.2812C12.6989 10.2812 13.1563 10.4048 13.5653 10.652C13.9773 10.8963 14.3054 11.2344 14.5497 11.6662C14.794 12.098 14.9162 12.5923 14.9162 13.1491C14.9162 13.706 14.7898 14.2102 14.5369 14.6619C14.2869 15.1136 13.9347 15.4716 13.4801 15.7358C13.0256 15.9972 12.4943 16.125 11.8864 16.1193ZM11.8821 15.0114C12.2173 15.0114 12.517 14.929 12.7812 14.7642C13.0455 14.5994 13.2543 14.3778 13.4077 14.0994C13.5611 13.821 13.6378 13.5099 13.6378 13.1662C13.6378 12.831 13.5625 12.5256 13.4119 12.25C13.2642 11.9744 13.0597 11.7557 12.7983 11.5938C12.5398 11.4318 12.2443 11.3509 11.9119 11.3509C11.6591 11.3509 11.4247 11.3991 11.2088 11.4957C10.9957 11.5923 10.8082 11.7259 10.6463 11.8963C10.4844 12.0668 10.3565 12.2628 10.2628 12.4844C10.1719 12.7031 10.1264 12.9347 10.1264 13.179C10.1264 13.5057 10.2017 13.8082 10.3523 14.0866C10.5057 14.3651 10.7145 14.5895 10.9787 14.7599C11.2457 14.9276 11.5469 15.0114 11.8821 15.0114Z" fill="white"/>
</svg>
