<svg width="36" height="36" viewBox="0 0 36 36" fill="none" xmlns="http://www.w3.org/2000/svg">
<rect x="0.5" y="0.5" width="35" height="35" rx="17.5" stroke="#323232"/>
<path fill-rule="evenodd" clip-rule="evenodd" d="M16.0013 13.9427L10.5 11.1914V21.9767L16.1667 24.8101V20.2967L25.5 24.7967V14.0254L20.1553 11.3527L17.3113 15.7767L16.0013 13.9427ZM11.5 21.3581V12.8107L15.1667 14.6441V23.1927L11.5 21.3594V21.3581ZM16.1667 19.1867L19.2973 20.6961L16.9187 16.9467L16.1667 15.8941V19.1867ZM17.9267 16.6694L20.644 20.9521L24.304 14.5454L20.5107 12.6487L17.9267 16.6694ZM24.5 16.2174L21.3707 21.6961L24.5 23.2047V16.2181V16.2174Z" fill="#E6E6E6"/>
</svg>
