<svg width="36" height="36" viewBox="0 0 36 36" fill="none" xmlns="http://www.w3.org/2000/svg">
<rect x="0.5" y="0.5" width="35" height="35" rx="17.5" stroke="#323232"/>
<path d="M18.0006 13.9006C17.1897 13.9006 16.397 14.1411 15.7228 14.5916C15.0485 15.0421 14.523 15.6824 14.2127 16.4316C13.9024 17.1808 13.8212 18.0052 13.9794 18.8005C14.1376 19.5958 14.5281 20.3264 15.1015 20.8998C15.6749 21.4732 16.4054 21.8636 17.2008 22.0218C17.9961 22.18 18.8204 22.0988 19.5696 21.7885C20.3188 21.4782 20.9591 20.9527 21.4096 20.2785C21.8602 19.6042 22.1006 18.8115 22.1006 18.0006C22.1019 17.4618 21.9968 16.9281 21.7912 16.4301C21.5856 15.932 21.2837 15.4795 20.9027 15.0985C20.5217 14.7176 20.0692 14.4156 19.5712 14.21C19.0732 14.0045 18.5394 13.8993 18.0006 13.9006ZM18.0006 20.6706C17.4725 20.6706 16.9563 20.514 16.5173 20.2206C16.0782 19.9273 15.736 19.5103 15.5339 19.0224C15.3318 18.5345 15.2789 17.9977 15.3819 17.4797C15.485 16.9618 15.7392 16.4861 16.1127 16.1127C16.4861 15.7392 16.9618 15.485 17.4797 15.3819C17.9977 15.2789 18.5345 15.3318 19.0224 15.5339C19.5103 15.736 19.9273 16.0782 20.2206 16.5173C20.514 16.9563 20.6706 17.4725 20.6706 18.0006C20.6706 18.7088 20.3893 19.3879 19.8886 19.8886C19.3879 20.3893 18.7088 20.6706 18.0006 20.6706ZM23.2306 13.7306C23.2306 13.9284 23.172 14.1217 23.0621 14.2862C22.9522 14.4506 22.796 14.5788 22.6133 14.6545C22.4306 14.7302 22.2295 14.75 22.0355 14.7114C21.8416 14.6728 21.6634 14.5776 21.5235 14.4377C21.3837 14.2979 21.2884 14.1197 21.2498 13.9257C21.2113 13.7317 21.2311 13.5307 21.3067 13.3479C21.3824 13.1652 21.5106 13.009 21.6751 12.8992C21.8395 12.7893 22.0328 12.7306 22.2306 12.7306C22.4958 12.7306 22.7502 12.836 22.9377 13.0235C23.1253 13.2111 23.2306 13.4654 23.2306 13.7306ZM25.9406 14.7306C25.9708 13.4873 25.5069 12.2826 24.6506 11.3806C24.2064 10.9512 23.6819 10.6136 23.107 10.3871C22.5322 10.1606 21.9184 10.0497 21.3006 10.0606C20.0006 10.0006 16.0006 10.0006 14.7006 10.0606C13.4578 10.0337 12.2544 10.4971 11.3506 11.3506C10.4943 12.2526 10.0304 13.4573 10.0606 14.7006C10.0006 16.0006 10.0006 20.0006 10.0606 21.3006C10.0304 22.544 10.4943 23.7486 11.3506 24.6506C12.2544 25.5041 13.4578 25.9675 14.7006 25.9406C16.0206 26.0206 19.9806 26.0206 21.3006 25.9406C22.544 25.9708 23.7486 25.5069 24.6506 24.6506C25.5069 23.7486 25.9708 22.544 25.9406 21.3006C26.0006 20.0006 26.0006 16.0006 25.9406 14.7006V14.7306ZM24.2406 22.7306C24.1049 23.0746 23.8999 23.3869 23.6384 23.6484C23.3769 23.9099 23.0646 24.1149 22.7206 24.2506C21.1682 24.5645 19.5812 24.6721 18.0006 24.5706C16.4234 24.6712 14.8398 24.5636 13.2906 24.2506C12.9467 24.1149 12.6343 23.9099 12.3728 23.6484C12.1114 23.3869 11.9064 23.0746 11.7706 22.7306C11.3506 21.6706 11.4406 19.1706 11.4406 18.0106C11.4406 16.8506 11.3506 14.3406 11.7706 13.2906C11.9026 12.9433 12.1061 12.6276 12.3679 12.364C12.6298 12.1004 12.9442 11.8948 13.2906 11.7606C14.8398 11.4476 16.4234 11.3401 18.0006 11.4406C19.5812 11.3392 21.1682 11.4468 22.7206 11.7606C23.0646 11.8964 23.3769 12.1014 23.6384 12.3628C23.8999 12.6243 24.1049 12.9367 24.2406 13.2806C24.6606 14.3406 24.5606 16.8406 24.5606 18.0006C24.5606 19.1606 24.6606 21.6706 24.2406 22.7206V22.7306Z" fill="#E6E6E6"/>
</svg>
