<svg width="36" height="36" viewBox="0 0 36 36" fill="none" xmlns="http://www.w3.org/2000/svg">
<rect x="0.5" y="0.5" width="35" height="35" rx="17.5" stroke="#323232"/>
<path d="M19.9167 17.9987L16.5625 19.9154V16.082L19.9167 17.9987Z" fill="#E6E6E6" stroke="#E6E6E6" stroke-width="1.4375" stroke-linecap="round" stroke-linejoin="round"/>
<path d="M8.41602 18.678V17.321C8.41602 14.5466 8.41602 13.1589 9.28331 12.2667C10.1516 11.3736 11.5181 11.3352 14.2503 11.2576C15.5441 11.2212 16.8666 11.1953 17.9993 11.1953C19.1321 11.1953 20.4536 11.2212 21.7483 11.2576C24.4806 11.3352 25.8471 11.3736 26.7144 12.2667C27.5817 13.1599 27.5827 14.5476 27.5827 17.321V18.677C27.5827 21.4524 27.5827 22.8391 26.7154 23.7322C25.8471 24.6244 24.4815 24.6637 21.7483 24.7404C20.4546 24.7778 19.1321 24.8036 17.9993 24.8036C16.8666 24.8036 15.5451 24.7778 14.2503 24.7404C11.5181 24.6637 10.1516 24.6254 9.28331 23.7322C8.41506 22.8391 8.41602 21.4514 8.41602 18.678Z" stroke="#E6E6E6" stroke-width="1.4375"/>
</svg>
